<svg width="15" height="18" viewBox="0 0 15 18" fill="none" xmlns="http://www.w3.org/2000/svg">
<path d="M7.491 17.137C7.78207 17.1452 8.07147 17.0903 8.33934 16.9762C8.60721 16.862 8.84722 16.6912 9.0429 16.4756C9.23858 16.26 9.3853 16.0046 9.47301 15.7269C9.56071 15.4493 9.58732 15.1559 9.551 14.867H5.423C5.38674 15.1566 5.41365 15.4506 5.50188 15.7287C5.59011 16.0069 5.73757 16.2626 5.9341 16.4784C6.13063 16.6941 6.37157 16.8647 6.64034 16.9784C6.90911 17.0921 7.19932 17.1462 7.491 17.137V17.137Z" fill="#121212"/>
<path d="M14.178 12.691C13.518 11.822 12.221 11.312 12.221 7.419C12.221 3.419 10.456 1.819 8.81197 1.431C8.65797 1.392 8.54597 1.341 8.54597 1.178V1.054C8.54597 0.776852 8.43588 0.511052 8.2399 0.315076C8.04392 0.119101 7.77813 0.00900269 7.50097 0.00900269C7.22382 0.00900269 6.95802 0.119101 6.76205 0.315076C6.56607 0.511052 6.45597 0.776852 6.45597 1.054V1.178C6.45597 1.336 6.34497 1.392 6.18997 1.431C4.54097 1.821 2.78097 3.423 2.78097 7.419C2.78097 11.312 1.48097 11.819 0.823974 12.691C0.728632 12.8173 0.670461 12.9678 0.656014 13.1254C0.641567 13.283 0.671418 13.4416 0.742203 13.5831C0.812989 13.7247 0.921897 13.8437 1.05666 13.9267C1.19143 14.0097 1.34669 14.0535 1.50497 14.053H13.505C13.6626 14.052 13.8168 14.0072 13.9504 13.9236C14.084 13.84 14.1917 13.7209 14.2615 13.5796C14.3314 13.4383 14.3605 13.2803 14.3458 13.1234C14.331 12.9665 14.2729 12.8168 14.178 12.691Z" fill="#121212"/>
</svg>
