<svg width="375" height="806" viewBox="0 0 375 806" fill="none" xmlns="http://www.w3.org/2000/svg">
<path d="M187.5 428C219.809 428 246 401.809 246 369.5C246 337.191 219.809 311 187.5 311C155.191 311 129 337.191 129 369.5C129 401.809 155.191 428 187.5 428Z" stroke="#F3F2F3" stroke-width="4"/>
<path d="M187.5 494C256.259 494 312 438.259 312 369.5C312 300.741 256.259 245 187.5 245C118.741 245 63 300.741 63 369.5C63 438.259 118.741 494 187.5 494Z" stroke="#F3F2F3" stroke-width="4"/>
<path d="M187.5 574C300.442 574 392 482.442 392 369.5C392 256.558 300.442 165 187.5 165C74.5578 165 -17 256.558 -17 369.5C-17 482.442 74.5578 574 187.5 574Z" stroke="#F3F2F3" stroke-width="4"/>
<path d="M187.5 642C337.998 642 460 519.998 460 369.5C460 219.002 337.998 97 187.5 97C37.0024 97 -85 219.002 -85 369.5C-85 519.998 37.0024 642 187.5 642Z" stroke="#F3F2F3" stroke-width="4"/>
<path d="M187.5 720C381.076 720 538 563.076 538 369.5C538 175.924 381.076 19 187.5 19C-6.07581 19 -163 175.924 -163 369.5C-163 563.076 -6.07581 720 187.5 720Z" stroke="#F3F2F3" stroke-width="4"/>
<path d="M187.5 804C427.468 804 622 609.468 622 369.5C622 129.532 427.468 -65 187.5 -65C-52.4677 -65 -247 129.532 -247 369.5C-247 609.468 -52.4677 804 187.5 804Z" stroke="#F3F2F3" stroke-width="4"/>
</svg>
