<svg width="20" height="20" viewBox="0 0 20 20" fill="none" xmlns="http://www.w3.org/2000/svg">
<path d="M19 3L5 3L19 3ZM5 3C5 2.60444 4.8827 2.21776 4.66294 1.88886C4.44318 1.55996 4.13082 1.30362 3.76537 1.15224C3.39992 1.00087 2.99778 0.96126 2.60982 1.03843C2.22186 1.1156 1.86549 1.30608 1.58579 1.58579C1.30608 1.86549 1.1156 2.22186 1.03843 2.60982C0.961259 2.99778 1.00087 3.39992 1.15224 3.76537C1.30362 4.13082 1.55996 4.44318 1.88886 4.66294C2.21776 4.8827 2.60444 5 3 5C3.53043 5 4.03914 4.78929 4.41421 4.41421C4.78929 4.03914 5 3.53043 5 3Z" stroke="white" stroke-width="2" stroke-linecap="round" stroke-linejoin="round"/>
<path d="M15 10H1H15ZM19 10C19 9.60444 18.8827 9.21776 18.6629 8.88886C18.4432 8.55996 18.1308 8.30362 17.7654 8.15224C17.3999 8.00087 16.9978 7.96126 16.6098 8.03843C16.2219 8.1156 15.8655 8.30608 15.5858 8.58579C15.3061 8.86549 15.1156 9.22186 15.0384 9.60982C14.9613 9.99778 15.0009 10.3999 15.1522 10.7654C15.3036 11.1308 15.56 11.4432 15.8889 11.6629C16.2178 11.8827 16.6044 12 17 12C17.5304 12 18.0391 11.7893 18.4142 11.4142C18.7893 11.0391 19 10.5304 19 10Z" stroke="white" stroke-width="2" stroke-linecap="round" stroke-linejoin="round"/>
<path d="M8 17H1H8ZM12 17H19H12ZM12 17C12 16.6044 11.8827 16.2178 11.6629 15.8889C11.4432 15.56 11.1308 15.3036 10.7654 15.1522C10.3999 15.0009 9.99778 14.9613 9.60982 15.0384C9.22186 15.1156 8.86549 15.3061 8.58579 15.5858C8.30608 15.8655 8.1156 16.2219 8.03843 16.6098C7.96126 16.9978 8.00087 17.3999 8.15224 17.7654C8.30362 18.1308 8.55996 18.4432 8.88886 18.6629C9.21776 18.8827 9.60444 19 10 19C10.5304 19 11.0391 18.7893 11.4142 18.4142C11.7893 18.0391 12 17.5304 12 17Z" stroke="white" stroke-width="2" stroke-linecap="round" stroke-linejoin="round"/>
</svg>
