<svg width="21" height="19" viewBox="0 0 21 19" fill="none" xmlns="http://www.w3.org/2000/svg">
<path d="M15.4688 0.461578C16.8098 0.461578 18.0998 0.991578 19.0488 1.94258C19.9988 2.89158 20.5298 4.17158 20.5298 5.51158V13.4116C20.5298 16.2016 18.2598 18.4616 15.4688 18.4616H5.58982C2.79882 18.4616 0.529816 16.2016 0.529816 13.4116V5.51158C0.529816 2.72158 2.78882 0.461578 5.58982 0.461578H15.4688ZM16.5998 5.66158C16.3898 5.65058 16.1898 5.72158 16.0388 5.86158L11.5298 9.46158C10.9498 9.94258 10.1188 9.94258 9.52982 9.46158L5.02982 5.86158C4.71882 5.63158 4.28882 5.66158 4.02982 5.93158C3.75982 6.20158 3.72982 6.63158 3.95882 6.93158L4.08982 7.06158L8.63982 10.6116C9.19982 11.0516 9.87882 11.2916 10.5898 11.2916C11.2988 11.2916 11.9898 11.0516 12.5488 10.6116L17.0598 7.00158L17.1398 6.92158C17.3788 6.63158 17.3788 6.21158 17.1288 5.92158C16.9898 5.77258 16.7988 5.68158 16.5998 5.66158Z" fill="#E55589"/>
</svg>
