<svg width="20" height="21" viewBox="0 0 20 21" fill="none" xmlns="http://www.w3.org/2000/svg">
<path d="M7.48997 19.4685V16.4108C7.48997 15.6302 8.12737 14.9975 8.91363 14.9975H11.7878C12.1654 14.9975 12.5275 15.1464 12.7945 15.4114C13.0615 15.6765 13.2115 16.0359 13.2115 16.4108V19.4685C13.2091 19.793 13.3373 20.105 13.5676 20.3353C13.7979 20.5656 14.1112 20.6952 14.4381 20.6952H16.399C17.3148 20.6975 18.1939 20.338 18.8424 19.696C19.4908 19.0539 19.8552 18.1821 19.8552 17.273V8.56202C19.8552 7.82762 19.5273 7.131 18.9598 6.65983L12.2892 1.37103C11.1289 0.443722 9.46631 0.473662 8.34059 1.44214L1.82221 6.65983C1.22793 7.11711 0.872746 7.8158 0.855194 8.56202V17.2641C0.855194 19.159 2.40258 20.6952 4.31137 20.6952H6.22748C6.90642 20.6952 7.45819 20.1514 7.46311 19.4774L7.48997 19.4685Z" fill="#E55589"/>
</svg>
